<?xml version="1.0" encoding="UTF-8"?>
<svg version="1.1" xmlns="http://www.w3.org/2000/svg" width="204" height="192">
<path d="M0 0 C1.77898499 0.02925876 3.55807686 0.05267869 5.33721924 0.06988525 C23.28863612 0.27124634 23.28863612 0.27124634 30.06716919 6.85684204 C30.52220825 7.51684204 30.97724731 8.17684204 31.44607544 8.85684204 C31.91916138 9.51684204 32.39224731 10.17684204 32.87966919 10.85684204 C34.78752019 14.23684104 35.13441449 17.47746481 35.25466919 21.31387329 C35.28592896 22.17182495 35.31718872 23.02977661 35.34939575 23.91372681 C35.38130005 24.82307983 35.41320435 25.73243286 35.44607544 26.66934204 C36.07685945 50.78979612 36.07685945 50.78979612 48.00857544 70.85684204 C50.08541023 71.9681654 52.14576062 72.93730988 54.33670044 73.80215454 C56.00857544 74.85684204 56.00857544 74.85684204 56.73513794 76.75527954 C57.19020197 80.25277163 57.10050981 82.4597129 56.00857544 85.85684204 C53.84417217 87.14390489 51.64448378 87.96291746 49.29373169 88.86074829 C44.70758925 90.85983602 42.82352061 94.01324231 40.89138794 98.38418579 C37.0086052 108.94138702 36.05794372 119.74571071 35.77420044 130.89248657 C35.30774307 147.47213063 35.30774307 147.47213063 30.00857544 153.85684204 C22.69285287 160.21833993 14.47749716 160.1550258 5.26516724 160.14736938 C3.51745529 160.15744522 3.51745529 160.15744522 1.73443604 160.16772461 C-2.10782159 160.18668382 -5.94990435 160.19062778 -9.79220581 160.19277954 C-11.79358037 160.19758278 -13.79495497 160.20238976 -15.79632825 160.20770037 C-22.08655225 160.22395181 -28.37671907 160.22887232 -34.66696167 160.22744751 C-41.1341522 160.22624697 -47.60100855 160.24733855 -54.06811458 160.27893484 C-59.63950698 160.30517493 -65.21079074 160.31581158 -70.78224438 160.31453669 C-74.10142432 160.3140293 -77.42024201 160.3214571 -80.73937416 160.34089279 C-84.4464729 160.36056824 -88.15271923 160.35470751 -91.85983276 160.34268188 C-93.4865667 160.35954041 -93.4865667 160.35954041 -95.14616394 160.3767395 C-102.65262539 160.31510803 -110.29354108 159.40725945 -115.93622303 153.98959923 C-122.46385391 146.34945305 -122.21808282 136.81594188 -122.36642456 127.23184204 C-122.72038928 114.73593078 -123.82654046 101.25470297 -132.17892456 91.23184204 C-135.59967831 88.34320554 -138.92568031 86.71743687 -142.99142456 84.85684204 C-142.99142456 81.55684204 -142.99142456 78.25684204 -142.99142456 74.85684204 C-142.25536987 74.5281311 -141.51931519 74.19942017 -140.76095581 73.86074829 C-133.56839574 70.35473156 -129.69219095 67.44674285 -126.99142456 59.85684204 C-123.51391581 49.4243158 -122.57972448 39.45218575 -122.17501831 28.50918579 C-121.804873 18.59929545 -121.19161653 12.02571015 -114.15939331 4.59902954 C-109.61653729 0.94837407 -105.16622289 0.55275668 -99.50289917 0.52212524 C-98.76251498 0.51051015 -98.02213079 0.49889505 -97.25931072 0.48692799 C-94.80415387 0.45100748 -92.34909061 0.42912122 -89.89376831 0.40762329 C-88.15811303 0.38575203 -86.42246638 0.36318587 -84.68682861 0.33996582 C-80.05567755 0.28119702 -75.42449597 0.23591466 -70.79315567 0.19503403 C-67.93493512 0.16939596 -65.0767539 0.14100033 -62.21856689 0.11187744 C-19.25523608 -0.31904854 -19.25523608 -0.31904854 0 0 Z M-71.99142456 38.85684204 C-71.99142456 66.24684204 -71.99142456 93.63684204 -71.99142456 121.85684204 C-67.76849253 122.91257505 -63.98122181 122.95675889 -59.67501831 122.87637329 C-58.8633168 122.86224899 -58.0516153 122.84812469 -57.21531677 122.83357239 C-55.49633455 122.80049384 -53.77741259 122.76414456 -52.05856323 122.72476196 C-49.46257814 122.67005129 -46.86710841 122.64110828 -44.27072144 122.61270142 C-29.65549551 122.58277911 -29.65549551 122.58277911 -17.01071167 116.07876587 C-11.74035873 110.34149171 -9.90047065 104.61066284 -9.99142456 96.85684204 C-11.24747716 90.2206975 -13.86568218 85.04486171 -19.49142456 81.10684204 C-21.69692847 80.00409008 -23.57823356 79.30372926 -25.99142456 78.85684204 C-25.99142456 78.19684204 -25.99142456 77.53684204 -25.99142456 76.85684204 C-24.34689331 75.52481079 -24.34689331 75.52481079 -22.17892456 74.04434204 C-17.39123611 70.53393443 -15.48504452 67.97235616 -14.11642456 62.10684204 C-13.56397414 56.14263245 -15.65334846 51.08696887 -18.67892456 46.04434204 C-32.2292695 33.22644818 -56.72167958 38.85684204 -71.99142456 38.85684204 Z " fill="#7C11F8" transform="translate(144.99142456054688,16.143157958984375)"/>
<path d="M0 0 C1.08152344 -0.020625 2.16304687 -0.04125 3.27734375 -0.0625 C11.09119599 -0.10066289 16.24629148 0.46136849 22.25 5.8125 C25.32142755 9.33560807 25.67102165 11.45960481 25.5859375 16.15625 C25.25548168 19.43632999 24.22363711 21.53866558 22.375 24.25 C17.12279574 28.38471399 13.31755141 29.37526186 6.76953125 29.3828125 C5.17141602 29.38474609 5.17141602 29.38474609 3.54101562 29.38671875 C2.43435547 29.38285156 1.32769531 29.37898438 0.1875 29.375 C-0.93076172 29.37886719 -2.04902344 29.38273437 -3.20117188 29.38671875 C-4.79348633 29.38478516 -4.79348633 29.38478516 -6.41796875 29.3828125 C-7.3927417 29.38168457 -8.36751465 29.38055664 -9.37182617 29.37939453 C-11.625 29.25 -11.625 29.25 -12.625 28.25 C-12.72483058 26.26242972 -12.75580753 24.2713248 -12.7578125 22.28125 C-12.75910156 21.07082031 -12.76039062 19.86039063 -12.76171875 18.61328125 C-12.75785156 17.33839844 -12.75398438 16.06351563 -12.75 14.75 C-12.75386719 13.47511719 -12.75773437 12.20023438 -12.76171875 10.88671875 C-12.76042969 9.67628906 -12.75914063 8.46585938 -12.7578125 7.21875 C-12.75668457 6.09919922 -12.75555664 4.97964844 -12.75439453 3.82617188 C-12.45239052 -2.18655707 -4.67154407 0.02180417 0 0 Z " fill="#7810F3" transform="translate(97.625,99.75)"/>
<path d="M0 0 C0.80182205 -0.00095673 1.6036441 -0.00191345 2.42976379 -0.00289917 C4.13034137 -0.00358051 5.83092154 -0.00172942 7.53149414 0.00244141 C10.11675995 0.00775542 12.70184924 0.00251308 15.28710938 -0.00390625 C16.94140663 -0.00324478 18.59570378 -0.00196218 20.25 0 C21.01692673 -0.00202423 21.78385345 -0.00404846 22.57402039 -0.00613403 C28.74868164 0.02039085 34.39306425 0.2610876 39.95703125 3.1328125 C41.94813526 3.51571712 43.94803638 3.85885865 45.95703125 4.1328125 C46.45203125 7.1028125 46.45203125 7.1028125 46.95703125 10.1328125 C49.43203125 10.6278125 49.43203125 10.6278125 51.95703125 11.1328125 C51.29703125 11.4628125 50.63703125 11.7928125 49.95703125 12.1328125 C50.61703125 13.4528125 51.27703125 14.7728125 51.95703125 16.1328125 C52.61703125 15.8028125 53.27703125 15.4728125 53.95703125 15.1328125 C54.45203125 17.1128125 54.45203125 17.1128125 54.95703125 19.1328125 C53.96703125 18.8028125 52.97703125 18.4728125 51.95703125 18.1328125 C52.0034375 18.8340625 52.04984375 19.5353125 52.09765625 20.2578125 C52.35915973 27.13161828 51.51521727 31.23956691 47.95703125 37.1328125 C47.29703125 37.1328125 46.63703125 37.1328125 45.95703125 37.1328125 C45.95703125 37.7928125 45.95703125 38.4528125 45.95703125 39.1328125 C44.96703125 39.6278125 44.96703125 39.6278125 43.95703125 40.1328125 C44.61703125 40.7928125 45.27703125 41.4528125 45.95703125 42.1328125 C46.45203125 42.6484375 46.94703125 43.1640625 47.45703125 43.6953125 C48.9163906 45.23581552 48.9163906 45.23581552 50.95703125 46.1328125 C50.95703125 45.4728125 50.95703125 44.8128125 50.95703125 44.1328125 C51.61703125 44.1328125 52.27703125 44.1328125 52.95703125 44.1328125 C53.20453125 44.9165625 53.45203125 45.7003125 53.70703125 46.5078125 C54.83232411 49.96471065 54.83232411 49.96471065 56.05078125 52.51171875 C59.09627885 59.25091106 59.09627885 59.25091106 58.39453125 63.6953125 C57.92015625 64.8296875 57.44578125 65.9640625 56.95703125 67.1328125 C56.42596246 68.71274216 55.905496 70.29626694 55.39453125 71.8828125 C54.91641083 73.29983261 54.43735679 74.71653833 53.95703125 76.1328125 C52.62369792 79.1328125 52.62369792 79.1328125 53.95703125 82.1328125 C53.19390625 81.9059375 52.43078125 81.6790625 51.64453125 81.4453125 C50.75765625 81.3421875 49.87078125 81.2390625 48.95703125 81.1328125 C47.24826665 82.50795791 47.24826665 82.50795791 45.95703125 84.1328125 C45.29703125 84.1328125 44.63703125 84.1328125 43.95703125 84.1328125 C44.28703125 85.1228125 44.61703125 86.1128125 44.95703125 87.1328125 C43.30703125 87.1328125 41.65703125 87.1328125 39.95703125 87.1328125 C39.95703125 88.1228125 39.95703125 89.1128125 39.95703125 90.1328125 C37.64599778 90.90315699 36.20718765 91.1866967 33.80126953 90.66845703 C30.23564563 89.9969567 26.74994 89.98967666 23.13671875 90 C22.39624298 89.99904327 21.65576721 89.99808655 20.89285278 89.99710083 C19.33465489 89.9964229 17.77645412 89.99825012 16.21826172 90.00244141 C13.83294359 90.00781045 11.44781243 90.00247553 9.0625 89.99609375 C7.5455725 89.9967543 6.02864512 89.99803499 4.51171875 90 C3.79917938 89.99797577 3.08664001 89.99595154 2.35250854 89.99386597 C-0.72268778 90.00845715 -3.1015893 90.15235268 -6.04296875 91.1328125 C-7.03296875 91.1328125 -8.02296875 91.1328125 -9.04296875 91.1328125 C-10.3110974 87.32842654 -10.17424211 83.7685521 -10.15649414 79.8059082 C-10.15664017 78.95690948 -10.15678619 78.10791077 -10.15693665 77.23318481 C-10.15623958 74.42496187 -10.14845681 71.61680512 -10.140625 68.80859375 C-10.13876009 66.86232031 -10.13733653 64.91604641 -10.13633728 62.96977234 C-10.13251787 57.84547633 -10.12269248 52.72120864 -10.1116333 47.59692383 C-10.10140681 42.36865624 -10.096837 37.14038408 -10.09179688 31.91210938 C-10.08106972 21.65233131 -10.06400018 11.39257426 -10.04296875 1.1328125 C-6.87792789 -0.44970793 -3.47448368 -0.00905112 0 0 Z M-8.04296875 2.1328125 C-8.04296875 29.5228125 -8.04296875 56.9128125 -8.04296875 85.1328125 C-3.82003672 86.18854551 -0.032766 86.23272934 4.2734375 86.15234375 C5.08513901 86.13821945 5.89684052 86.12409515 6.73313904 86.10954285 C8.45212127 86.0764643 10.17104323 86.04011502 11.88989258 86.00073242 C14.48587767 85.94602175 17.0813474 85.91707873 19.67773438 85.88867188 C34.2929603 85.85874957 34.2929603 85.85874957 46.93774414 79.35473633 C52.20809708 73.61746217 54.04798516 67.8866333 53.95703125 60.1328125 C52.70097866 53.49666796 50.08277363 48.32083217 44.45703125 44.3828125 C42.25152734 43.28006054 40.37022225 42.57969972 37.95703125 42.1328125 C37.95703125 41.4728125 37.95703125 40.8128125 37.95703125 40.1328125 C39.6015625 38.80078125 39.6015625 38.80078125 41.76953125 37.3203125 C46.5572197 33.80990489 48.46341129 31.24832662 49.83203125 25.3828125 C50.38448167 19.41860291 48.29510735 14.36293933 45.26953125 9.3203125 C31.71918631 -3.49758136 7.22677623 2.1328125 -8.04296875 2.1328125 Z " fill="#6A0DE5" transform="translate(81.04296875,52.8671875)"/>
<path d="M0 0 C0.93005859 -0.020625 1.86011719 -0.04125 2.81835938 -0.0625 C8.90947988 -0.09674383 13.4032609 0.65896988 18.9375 3.25 C21.97259883 6.38300525 22.84016579 9.2182574 23.25 13.5625 C22.87540854 17.98267921 21.77364013 19.87729281 18.9375 23.25 C14.48292156 26.47956937 10.63297311 27.37526224 5.20703125 27.3828125 C3.87961914 27.38474609 3.87961914 27.38474609 2.52539062 27.38671875 C1.60951172 27.38285156 0.69363281 27.37898438 -0.25 27.375 C-1.17748047 27.37886719 -2.10496094 27.38273437 -3.06054688 27.38671875 C-3.94162109 27.38542969 -4.82269531 27.38414063 -5.73046875 27.3828125 C-6.94126099 27.38112061 -6.94126099 27.38112061 -8.17651367 27.37939453 C-10.0625 27.25 -10.0625 27.25 -11.0625 26.25 C-11.16209621 24.40840977 -11.19330411 22.56303033 -11.1953125 20.71875 C-11.19660156 19.59855469 -11.19789062 18.47835937 -11.19921875 17.32421875 C-11.19535156 16.14472656 -11.19148438 14.96523437 -11.1875 13.75 C-11.19136719 12.57050781 -11.19523437 11.39101562 -11.19921875 10.17578125 C-11.19792969 9.05558594 -11.19664063 7.93539062 -11.1953125 6.78125 C-11.19418457 5.74548828 -11.19305664 4.70972656 -11.19189453 3.64257812 C-10.89333989 -1.87786612 -4.31442957 0.02324272 0 0 Z " fill="#7D10F4" transform="translate(96.0625,63.75)"/>
<path d="M0 0 C1.77898499 0.02925876 3.55807686 0.05267869 5.33721924 0.06988525 C21.4486914 0.25060768 21.4486914 0.25060768 28.00857544 4.85684204 C28.99857544 6.34184204 28.99857544 6.34184204 30.00857544 7.85684204 C29.34857544 8.51684204 28.68857544 9.17684204 28.00857544 9.85684204 C27.20420044 8.92871704 27.20420044 8.92871704 26.38357544 7.98184204 C20.57153151 2.78159221 13.37580259 3.57736337 6.0239563 3.61392212 C4.82166885 3.61202377 3.61938141 3.61012543 2.38066101 3.60816956 C-0.90440054 3.60510652 -4.1892951 3.61095343 -7.47433782 3.6211226 C-10.91797421 3.62993319 -14.3616067 3.62814507 -17.80525208 3.62776184 C-23.5861641 3.6286971 -29.36702349 3.63736285 -35.1479187 3.65103149 C-41.82580357 3.66676295 -48.50363086 3.67202925 -55.18153292 3.67129594 C-62.30077014 3.67061983 -69.41998526 3.67756381 -76.5392158 3.68674254 C-78.58676853 3.68887089 -80.63431768 3.68958331 -82.68187141 3.68998146 C-86.50001028 3.69214731 -90.31807664 3.7008968 -94.13619995 3.71157837 C-95.26828888 3.71112518 -96.40037781 3.710672 -97.56677246 3.71020508 C-98.60832993 3.71447006 -99.64988739 3.71873505 -100.7230072 3.72312927 C-101.62502397 3.72480512 -102.52704073 3.72648096 -103.45639133 3.72820759 C-106.05470595 3.86005311 -108.45705937 4.2828387 -110.99142456 4.85684204 C-110.99142456 5.51684204 -110.99142456 6.17684204 -110.99142456 6.85684204 C-111.77517456 7.02184204 -112.55892456 7.18684204 -113.36642456 7.35684204 C-116.34905738 8.67452348 -116.34905738 8.67452348 -117.12423706 12.24746704 C-118.28737749 17.49747601 -118.36488045 22.74936872 -118.49142456 28.10684204 C-118.75720453 36.18821416 -119.38037031 43.91945281 -120.99142456 51.85684204 C-121.89536172 57.09785143 -121.83496459 61.58471684 -120.99142456 66.85684204 C-121.99142456 68.85684204 -121.99142456 68.85684204 -125.05392456 69.98184204 C-126.02329956 70.27059204 -126.99267456 70.55934204 -127.99142456 70.85684204 C-127.99142456 71.51684204 -127.99142456 72.17684204 -127.99142456 72.85684204 C-128.65142456 72.85684204 -129.31142456 72.85684204 -129.99142456 72.85684204 C-129.99142456 73.51684204 -129.99142456 74.17684204 -129.99142456 74.85684204 C-132.30142456 74.85684204 -134.61142456 74.85684204 -136.99142456 74.85684204 C-137.48642456 75.84684204 -137.48642456 75.84684204 -137.99142456 76.85684204 C-138.65142456 76.85684204 -139.31142456 76.85684204 -139.99142456 76.85684204 C-139.99142456 78.83684204 -139.99142456 80.81684204 -139.99142456 82.85684204 C-137.68142456 84.17684204 -135.37142456 85.49684204 -132.99142456 86.85684204 C-132.99142456 87.51684204 -132.99142456 88.17684204 -132.99142456 88.85684204 C-134.4717722 88.38133643 -135.95067477 87.90132988 -137.42892456 87.41934204 C-138.2526355 87.1525061 -139.07634644 86.88567017 -139.92501831 86.61074829 C-141.99142456 85.85684204 -141.99142456 85.85684204 -142.99142456 84.85684204 C-143.06347967 83.17075238 -143.07528524 81.48183545 -143.05392456 79.79434204 C-143.04490112 78.87524048 -143.03587769 77.95613892 -143.02658081 77.00918579 C-143.01497925 76.29891235 -143.00337769 75.58863892 -142.99142456 74.85684204 C-142.25536987 74.5281311 -141.51931519 74.19942017 -140.76095581 73.86074829 C-133.56839574 70.35473156 -129.69219095 67.44674285 -126.99142456 59.85684204 C-123.51391581 49.4243158 -122.57972448 39.45218575 -122.17501831 28.50918579 C-121.804873 18.59929545 -121.19161653 12.02571015 -114.15939331 4.59902954 C-109.61653729 0.94837407 -105.16622289 0.55275668 -99.50289917 0.52212524 C-98.76251498 0.51051015 -98.02213079 0.49889505 -97.25931072 0.48692799 C-94.80415387 0.45100748 -92.34909061 0.42912122 -89.89376831 0.40762329 C-88.15811303 0.38575203 -86.42246638 0.36318587 -84.68682861 0.33996582 C-80.05567755 0.28119702 -75.42449597 0.23591466 -70.79315567 0.19503403 C-67.93493512 0.16939596 -65.0767539 0.14100033 -62.21856689 0.11187744 C-19.25523608 -0.31904854 -19.25523608 -0.31904854 0 0 Z " fill="#8615EF" transform="translate(144.99142456054688,16.143157958984375)"/>
<path d="M0 0 C2.57562509 0.34997878 3.70668909 0.64104728 5.37890625 2.6875 C10.73408623 13.1504259 12.26986201 24.60637282 12 36.25 C11.81391962 45.65636336 12.70225804 56.54214767 19 64 C21.96340811 65.1536515 24.86065805 65.59100122 28 66 C28.60612247 66.1680653 29.21224495 66.3361306 29.83673477 66.50928879 C32.23225005 67.05268319 34.37489893 67.13175813 36.83099365 67.14044189 C38.28596252 67.14900711 38.28596252 67.14900711 39.77032471 67.15774536 C40.82806091 67.15886322 41.88579712 67.15998108 42.97558594 67.16113281 C44.09473389 67.16609772 45.21388184 67.17106262 46.36694336 67.17617798 C50.07276014 67.19079377 53.77853411 67.19760086 57.484375 67.203125 C60.06024171 67.20887716 62.63610841 67.21463489 65.2119751 67.22039795 C69.92501067 67.22956344 74.63802913 67.23586425 79.35107207 67.2388947 C86.27418001 67.24337139 93.19709012 67.26090399 100.12013793 67.2898953 C106.1279795 67.31417515 112.13572797 67.32184187 118.14362335 67.32357025 C120.6936577 67.32659434 123.24369126 67.33461459 125.79369354 67.34775543 C129.36489264 67.36484426 132.93561234 67.36292834 136.50683594 67.35644531 C137.55647522 67.3656601 138.6061145 67.37487488 139.68756104 67.3843689 C145.86426185 67.34931291 150.34821 66.50576388 156 64 C157.99640639 63.32264783 159.99504414 62.65161065 162 62 C162 62.66 162 63.32 162 64 C154.15690427 70.12144057 146.813031 70.29846975 137.2565918 70.29052734 C135.50887985 70.30060318 135.50887985 70.30060318 133.7258606 70.31088257 C129.88360297 70.32984178 126.04152021 70.33378574 122.19921875 70.3359375 C120.19784419 70.34074074 118.19646959 70.34554772 116.19509631 70.35085833 C109.90487231 70.36710977 103.61470549 70.37203028 97.32446289 70.37060547 C90.85727236 70.36940493 84.39041601 70.39049651 77.92330998 70.4220928 C72.35191758 70.44833289 66.78063382 70.45896954 61.20918018 70.45769465 C57.89000024 70.45718725 54.57118255 70.46461506 51.2520504 70.48405075 C47.54495166 70.5037262 43.83870533 70.49786547 40.1315918 70.48583984 C38.50485786 70.50269836 38.50485786 70.50269836 36.84526062 70.51989746 C29.33879917 70.45826599 21.69788348 69.55041741 16.05520153 64.13275719 C9.52757065 56.49261101 9.77334174 46.95909984 9.625 37.375 C9.28157023 25.25100095 7.69636499 14.86786166 2 4 C1.33333333 2.66666667 0.66666667 1.33333333 0 0 Z " fill="#620FCF" transform="translate(13,106)"/>
<path d="M0 0 C1.77770827 0.02860578 3.55551703 0.05158896 5.33337402 0.06860352 C21.44555752 0.24952151 21.44555752 0.24952151 28.0055542 4.85583496 C28.9955542 6.34083496 28.9955542 6.34083496 30.0055542 7.85583496 C29.3455542 8.51583496 28.6855542 9.17583496 28.0055542 9.85583496 C27.2011792 8.92770996 27.2011792 8.92770996 26.3805542 7.98083496 C20.48598241 2.70674441 13.11795412 3.58282919 5.66619873 3.62878418 C4.42661911 3.62849213 3.18703949 3.62820007 1.90989685 3.62789917 C-1.47610001 3.62905101 -4.86185083 3.6390583 -8.24780416 3.65304708 C-11.79120243 3.66557801 -15.33460423 3.6667268 -18.87802124 3.6690979 C-25.58209546 3.67530574 -32.28610419 3.69170711 -38.99014962 3.71179688 C-46.62495893 3.73417758 -54.25977143 3.74515476 -61.8946054 3.75518775 C-77.59459008 3.77607398 -93.29450948 3.81123637 -108.9944458 3.85583496 C-108.3344458 2.86583496 -107.6744458 1.87583496 -106.9944458 0.85583496 C-104.53227188 0.53332564 -102.3144856 0.40805777 -99.84649658 0.40759277 C-99.10655047 0.39583165 -98.36660437 0.38407053 -97.60423565 0.37195301 C-95.13269161 0.33652466 -92.66151148 0.322608 -90.1897583 0.30895996 C-88.44981056 0.28897552 -86.7098758 0.2678311 -84.96995544 0.24559021 C-80.31408286 0.1905086 -75.65826623 0.15519129 -71.00217056 0.1253624 C-68.13019825 0.1059078 -65.25830495 0.08173334 -62.38638306 0.05593872 C-19.9332782 -0.32227792 -19.9332782 -0.32227792 0 0 Z " fill="#6817C5" transform="translate(144.99444580078125,16.1441650390625)"/>
<path d="M0 0 C1.08152344 -0.020625 2.16304687 -0.04125 3.27734375 -0.0625 C11.09119599 -0.10066289 16.24629148 0.46136849 22.25 5.8125 C25.32142755 9.33560807 25.67102165 11.45960481 25.5859375 16.15625 C25.25548168 19.43632999 24.22363711 21.53866558 22.375 24.25 C17.12279574 28.38471399 13.31755141 29.37526186 6.76953125 29.3828125 C5.17141602 29.38474609 5.17141602 29.38474609 3.54101562 29.38671875 C2.43435547 29.38285156 1.32769531 29.37898438 0.1875 29.375 C-0.93076172 29.37886719 -2.04902344 29.38273437 -3.20117188 29.38671875 C-4.79348633 29.38478516 -4.79348633 29.38478516 -6.41796875 29.3828125 C-7.3927417 29.38168457 -8.36751465 29.38055664 -9.37182617 29.37939453 C-11.625 29.25 -11.625 29.25 -12.625 28.25 C-12.72483058 26.26242972 -12.75580753 24.2713248 -12.7578125 22.28125 C-12.75910156 21.07082031 -12.76039062 19.86039063 -12.76171875 18.61328125 C-12.75785156 17.33839844 -12.75398438 16.06351563 -12.75 14.75 C-12.75386719 13.47511719 -12.75773437 12.20023438 -12.76171875 10.88671875 C-12.76042969 9.67628906 -12.75914063 8.46585938 -12.7578125 7.21875 C-12.75668457 6.09919922 -12.75555664 4.97964844 -12.75439453 3.82617188 C-12.45239052 -2.18655707 -4.67154407 0.02180417 0 0 Z M-9.625 3.25 C-9.625 11.17 -9.625 19.09 -9.625 27.25 C-4.675 27.3428125 -4.675 27.3428125 0.375 27.4375 C1.39851563 27.46481201 2.42203125 27.49212402 3.4765625 27.52026367 C10.53891383 27.58380844 15.74070484 26.4305771 21.875 22.75 C24.35643383 18.61427695 24.14031665 13.93842633 23.375 9.25 C21.96274546 6.68226447 21.06736451 5.53227169 18.34375 4.421875 C9.01276571 2.82733971 -0.18037674 3.11603371 -9.625 3.25 Z " fill="#680CD2" transform="translate(97.625,99.75)"/>
<path d="M0 0 C0.93005859 -0.020625 1.86011719 -0.04125 2.81835938 -0.0625 C8.90947988 -0.09674383 13.4032609 0.65896988 18.9375 3.25 C21.97259883 6.38300525 22.84016579 9.2182574 23.25 13.5625 C22.87540854 17.98267921 21.77364013 19.87729281 18.9375 23.25 C14.48292156 26.47956937 10.63297311 27.37526224 5.20703125 27.3828125 C3.87961914 27.38474609 3.87961914 27.38474609 2.52539062 27.38671875 C1.60951172 27.38285156 0.69363281 27.37898438 -0.25 27.375 C-1.17748047 27.37886719 -2.10496094 27.38273437 -3.06054688 27.38671875 C-3.94162109 27.38542969 -4.82269531 27.38414063 -5.73046875 27.3828125 C-6.94126099 27.38112061 -6.94126099 27.38112061 -8.17651367 27.37939453 C-10.0625 27.25 -10.0625 27.25 -11.0625 26.25 C-11.16209621 24.40840977 -11.19330411 22.56303033 -11.1953125 20.71875 C-11.19660156 19.59855469 -11.19789062 18.47835937 -11.19921875 17.32421875 C-11.19535156 16.14472656 -11.19148438 14.96523437 -11.1875 13.75 C-11.19136719 12.57050781 -11.19523437 11.39101562 -11.19921875 10.17578125 C-11.19792969 9.05558594 -11.19664063 7.93539062 -11.1953125 6.78125 C-11.19418457 5.74548828 -11.19305664 4.70972656 -11.19189453 3.64257812 C-10.89333989 -1.87786612 -4.31442957 0.02324272 0 0 Z M-10.0625 3.25 C-10.0625 3.91 -10.0625 4.57 -10.0625 5.25 C-9.4025 5.25 -8.7425 5.25 -8.0625 5.25 C-8.0625 11.85 -8.0625 18.45 -8.0625 25.25 C-4.0715625 25.311875 -4.0715625 25.311875 0 25.375 C1.23568726 25.40231201 1.23568726 25.40231201 2.49633789 25.43017578 C7.36512834 25.46632295 11.32124049 24.80714464 15.9375 23.25 C16.040625 22.610625 16.14375 21.97125 16.25 21.3125 C16.476875 20.631875 16.70375 19.95125 16.9375 19.25 C17.9275 18.92 18.9175 18.59 19.9375 18.25 C20.84602409 15.75155876 21.1942163 13.97066142 20.2890625 11.4296875 C18.60843485 8.21632742 17.53944593 6.55797234 14.25 4.875 C13.486875 4.66875 12.72375 4.4625 11.9375 4.25 C11.6075 3.92 11.2775 3.59 10.9375 3.25 C9.37577255 3.16314397 7.81020656 3.14297781 6.24609375 3.15234375 C5.30185547 3.15556641 4.35761719 3.15878906 3.38476562 3.16210938 C1.89493164 3.17467773 1.89493164 3.17467773 0.375 3.1875 C-0.62208984 3.19201172 -1.61917969 3.19652344 -2.64648438 3.20117188 C-5.11854849 3.21299993 -7.59049518 3.22948151 -10.0625 3.25 Z " fill="#6A24C2" transform="translate(96.0625,63.75)"/>
<path d="M0 0 C0.33 0 0.66 0 1 0 C1 28.38 1 56.76 1 86 C3.31 86 5.62 86 8 86 C8.495 85.01 8.495 85.01 9 84 C9.85078125 84.0721875 10.7015625 84.144375 11.578125 84.21875 C19.19493838 84.80216549 26.79839183 85.15319431 34.4375 85.25 C35.26475586 85.27126953 36.09201172 85.29253906 36.94433594 85.31445312 C42.66034209 85.34665598 46.74850477 84.26035232 52 82 C53.99640639 81.32264783 55.99504414 80.65161065 58 80 C57.34 80.99 56.68 81.98 56 83 C55.34 83 54.68 83 54 83 C54.33 83.99 54.66 84.98 55 86 C53.35 86 51.7 86 50 86 C50 86.99 50 87.98 50 89 C47.68896653 89.77034449 46.2501564 90.0538842 43.84423828 89.53564453 C40.27861438 88.8641442 36.79290875 88.85686416 33.1796875 88.8671875 C32.43921173 88.86623077 31.69873596 88.86527405 30.93582153 88.86428833 C29.37762364 88.8636104 27.81942287 88.86543762 26.26123047 88.86962891 C23.87591234 88.87499795 21.49078118 88.86966303 19.10546875 88.86328125 C17.58854125 88.8639418 16.07161387 88.86522249 14.5546875 88.8671875 C13.84214813 88.86516327 13.12960876 88.86313904 12.39547729 88.86105347 C9.32028097 88.87564465 6.94137945 89.01954018 4 90 C3.01 90 2.02 90 1 90 C-0.26812865 86.19561404 -0.13127336 82.6357396 -0.11352539 78.6730957 C-0.11367142 77.82409698 -0.11381744 76.97509827 -0.1139679 76.10037231 C-0.11327083 73.29214937 -0.10548806 70.48399262 -0.09765625 67.67578125 C-0.09579134 65.72950781 -0.09436778 63.78323391 -0.09336853 61.83695984 C-0.08954912 56.71266383 -0.07972373 51.58839614 -0.06866455 46.46411133 C-0.05843806 41.23584374 -0.05386825 36.00757158 -0.04882812 30.77929688 C-0.03810097 20.51951881 -0.02103143 10.25976176 0 0 Z " fill="#680FD5" transform="translate(71,54)"/>
<path d="M0 0 C0.78220917 0.00202423 1.56441833 0.00404846 2.37033081 0.00613403 C3.17356781 0.00517731 3.97680481 0.00422058 4.80438232 0.00323486 C6.51093626 0.00255261 8.21749276 0.00441 9.92404175 0.00857544 C12.518178 0.01388141 15.11213778 0.00865379 17.70626831 0.00222778 C19.36512286 0.00288938 21.02397729 0.00417221 22.68283081 0.00613403 C23.45289459 0.0041098 24.22295837 0.00208557 25.01635742 0 C31.19976368 0.02644612 36.85285208 0.26298977 42.42501831 3.13894653 C43.94095581 3.20082153 43.94095581 3.20082153 45.48751831 3.26394653 C48.42501831 4.13894653 48.42501831 4.13894653 49.51095581 5.83816528 C51.05771318 9.67667784 51.73492923 12.11887508 50.42501831 16.13894653 C50.15689331 15.60785278 49.88876831 15.07675903 49.61251831 14.52957153 C46.54078847 8.99237432 43.49881187 6.08299981 37.42501831 4.13894653 C23.27142074 1.7800136 8.76860939 2.52661116 -5.57498169 2.13894653 C-5.24498169 29.52894653 -4.91498169 56.91894653 -4.57498169 85.13894653 C-2.92498169 85.13894653 -1.27498169 85.13894653 0.42501831 85.13894653 C0.42501831 85.79894653 0.42501831 86.45894653 0.42501831 87.13894653 C-1.88498169 87.13894653 -4.19498169 87.13894653 -6.57498169 87.13894653 C-6.59810438 75.94321409 -6.6158964 64.74748729 -6.62679386 53.55173588 C-6.63202285 48.35366538 -6.63912079 43.15561117 -6.65042114 37.95755005 C-6.66124945 32.94552385 -6.6672584 27.93351335 -6.66985893 22.92147636 C-6.67171328 21.00482371 -6.67533409 19.08817196 -6.68071175 17.17152596 C-6.68792144 14.49666581 -6.68897266 11.8218714 -6.68850708 9.14700317 C-6.69210236 8.34643494 -6.69569763 7.5458667 -6.69940186 6.72103882 C-6.68713001 0.24891981 -6.47715792 0.02843209 0 0 Z " fill="#6C28AF" transform="translate(78.57498168945313,52.861053466796875)"/>
<path d="M0 0 C0.99 0.33 1.98 0.66 3 1 C2.236875 1.7425 1.47375 2.485 0.6875 3.25 C-9.45578262 13.62917292 -10.75157739 28.39514625 -11.19921875 42.34375 C-11.23055908 43.26937744 -11.26189941 44.19500488 -11.29418945 45.14868164 C-11.34674847 46.96252347 -11.38140959 48.77700246 -11.39526367 50.59155273 C-11.55293331 56.73949646 -12.90279628 60.67552428 -16 66 C-17.25038823 62.24883531 -16.57269555 59.90546546 -16 56 C-15.90417254 53.20636322 -15.94853769 50.41940342 -16 47.625 C-16.04542046 45.07691197 -16.04754167 42.54942229 -16 40 C-15.505 39.505 -15.505 39.505 -15 39 C-14.599617 36.14471393 -14.2481773 33.30263513 -13.9375 30.4375 C-13.84662109 29.63119141 -13.75574219 28.82488281 -13.66210938 27.99414062 C-13.43752551 25.99652623 -13.21826764 23.9983144 -13 22 C-13.33 22 -13.66 22 -14 22 C-14.3125 19.8125 -14.3125 19.8125 -14 17 C-12.35697047 15.31002677 -10.68528688 13.64783606 -9 12 C-7.66740476 9.66995324 -6.46699367 7.31164075 -5.30859375 4.890625 C-4 3 -4 3 -1.84765625 2.234375 C-1.23792969 2.15703125 -0.62820312 2.0796875 0 2 C0 1.34 0 0.68 0 0 Z " fill="#6413D1" transform="translate(192,102)"/>
<path d="M0 0 C2.57562509 0.34997878 3.70668909 0.64104728 5.37890625 2.6875 C10.73408623 13.1504259 12.26986201 24.60637282 12 36.25 C11.81261612 45.7222549 12.74164832 56.45788388 19 64 C22.23274109 65.70037091 25.51247625 66.92845167 29 68 C28.67 68.66 28.34 69.32 28 70 C21.54055599 68.05961366 17.19327329 65.96877508 13.15625 60.48828125 C9.73455663 53.12470464 9.74845122 45.35096678 9.625 37.375 C9.28157023 25.25100095 7.69636499 14.86786166 2 4 C1.33333333 2.66666667 0.66666667 1.33333333 0 0 Z " fill="#6E30C5" transform="translate(13,106)"/>
<path d="M0 0 C1.65 0.33 3.3 0.66 5 1 C4.01 1.495 4.01 1.495 3 2 C3.66 3.32 4.32 4.64 5 6 C5.66 5.67 6.32 5.34 7 5 C7.33 6.32 7.66 7.64 8 9 C7.01 8.67 6.02 8.34 5 8 C5.04640625 8.70125 5.0928125 9.4025 5.140625 10.125 C5.40212848 16.99880578 4.55818602 21.10675441 1 27 C0.34 27 -0.32 27 -1 27 C-1 27.66 -1 28.32 -1 29 C-1.66 29.33 -2.32 29.66 -3 30 C-2.34 30.66 -1.68 31.32 -1 32 C0.66666667 33.66666667 2.33333333 35.33333333 4 37 C3.67 37.99 3.34 38.98 3 40 C2.48050781 39.59007812 1.96101562 39.18015625 1.42578125 38.7578125 C-2.2423777 35.92363424 -5.51449706 33.40171967 -10 32 C-8.83537483 28.5061245 -8.11601341 28.22433824 -5.125 26.3125 C-1.58396929 23.70599624 0.38733503 21.65221312 1.67578125 17.42578125 C2.40116049 11.99854618 2.48672759 4.97345518 0 0 Z " fill="#6417CA" transform="translate(128,63)"/>
<path d="M0 0 C0.66 0.33 1.32 0.66 2 1 C1.67 1.66 1.34 2.32 1 3 C0.34 3 -0.32 3 -1 3 C-1 3.66 -1 4.32 -1 5 C-1.78375 5.165 -2.5675 5.33 -3.375 5.5 C-6.36082305 6.81920544 -6.36082305 6.81920544 -7.13671875 10.41015625 C-8.27704391 15.55774526 -8.33240426 20.68491158 -8.4375 25.9375 C-8.73728995 35.86414479 -9.92932662 45.29778824 -12 55 C-12.99 55 -13.98 55 -15 55 C-14.86722656 54.29359375 -14.73445313 53.5871875 -14.59765625 52.859375 C-13.39247254 45.85699374 -12.78616324 39.02968999 -12.5 31.9375 C-11.50834452 10.43222649 -11.50834452 10.43222649 -3.875 2.64453125 C-2 1 -2 1 0 0 Z " fill="#781AD8" transform="translate(35,18)"/>
<path d="M0 0 C0.66 0 1.32 0 2 0 C2.36351562 1.28583984 2.36351562 1.28583984 2.734375 2.59765625 C6.21838243 15.00298713 6.21838243 15.00298713 15 24 C16.0725 24.495 17.145 24.99 18.25 25.5 C21 27 21 27 21.9375 28.75 C22.02525059 31.90902118 21.53773747 34.8930724 21 38 C19.515 37.505 19.515 37.505 18 37 C18.66 34.03 19.32 31.06 20 28 C17.69 27.67 15.38 27.34 13 27 C12.67 26.01 12.34 25.02 12 24 C10.02 24 8.04 24 6 24 C6 24.66 6 25.32 6 26 C5.34 26 4.68 26 4 26 C4.185625 24.88625 4.37125 23.7725 4.5625 22.625 C5.31680657 19.17431139 5.31680657 19.17431139 4 17 C1.47266765 16.34444881 1.47266765 16.34444881 -1 16 C-1 13.69 -1 11.38 -1 9 C-0.01 10.485 -0.01 10.485 1 12 C0.67 8.04 0.34 4.08 0 0 Z " fill="#671ECA" transform="translate(180,64)"/>
<path d="M0 0 C0.33 0 0.66 0 1 0 C1 8.58 1 17.16 1 26 C4.63 25.87625 8.26 25.7525 12 25.625 C13.12792969 25.59100098 14.25585938 25.55700195 15.41796875 25.52197266 C21.21551946 25.29608078 26.46979731 24.8089448 32 23 C33.5748108 21.02965198 33.5748108 21.02965198 34 19 C34.66 19 35.32 19 36 19 C35.67 14.71 35.34 10.42 35 6 C38 9 38 9 38.375 12.8125 C38.19755757 16.84192193 37.30466389 19.6198263 35 23 C29.74779574 27.13471399 25.94255141 28.12526186 19.39453125 28.1328125 C17.79641602 28.13474609 17.79641602 28.13474609 16.16601562 28.13671875 C15.05935547 28.13285156 13.95269531 28.12898438 12.8125 28.125 C11.69423828 28.12886719 10.57597656 28.13273437 9.42382812 28.13671875 C7.83151367 28.13478516 7.83151367 28.13478516 6.20703125 28.1328125 C5.2322583 28.13168457 4.25748535 28.13055664 3.25317383 28.12939453 C1 28 1 28 0 27 C-0.08758003 25.00035018 -0.10696576 22.9976389 -0.09765625 20.99609375 C-0.09443359 19.78115234 -0.09121094 18.56621094 -0.08789062 17.31445312 C-0.07951172 16.03505859 -0.07113281 14.75566406 -0.0625 13.4375 C-0.05798828 12.15423828 -0.05347656 10.87097656 -0.04882812 9.54882812 C-0.03699545 6.36583978 -0.02051068 3.18294238 0 0 Z " fill="#6421B7" transform="translate(85,101)"/>
<path d="M0 0 C0.66 0 1.32 0 2 0 C-0.27219696 5.57721073 -4.70018893 9.35009446 -10 12 C-15.62109761 13.95951749 -20.57429872 14.27891074 -26.5 14.1875 C-27.36915039 14.18105469 -28.23830078 14.17460937 -29.13378906 14.16796875 C-36.78029812 14.07824074 -44.38115208 13.6464477 -52 13 C-52 12.67 -52 12.34 -52 12 C-50.99735107 11.9906543 -49.99470215 11.98130859 -48.96166992 11.97167969 C-45.19089629 11.93137712 -41.42090456 11.86551415 -37.65063477 11.79248047 C-36.02834222 11.76450159 -34.40591919 11.74317397 -32.78344727 11.72900391 C-17.30524685 11.95914534 -17.30524685 11.95914534 -4.0144043 5.10449219 C-2.42596781 3.29186466 -2.42596781 3.29186466 -1.12109375 1.390625 C-0.75113281 0.93171875 -0.38117188 0.4728125 0 0 Z " fill="#703DC2" transform="translate(132,126)"/>
<path d="M0 0 C2.33944736 0.28730055 4.6739143 0.61936779 7 1 C7.28571429 8.42857143 7.28571429 8.42857143 5 12 C2.03 11.505 2.03 11.505 -1 11 C-1.02688151 9.35425434 -1.04634123 7.70838587 -1.0625 6.0625 C-1.07410156 5.14597656 -1.08570313 4.22945313 -1.09765625 3.28515625 C-1 1 -1 1 0 0 Z " fill="#660EE7" transform="translate(193,91)"/>
<path d="M0 0 C-0.33 0.99 -0.66 1.98 -1 3 C-2.65 3.33 -4.3 3.66 -6 4 C-5.4225 4.144375 -4.845 4.28875 -4.25 4.4375 C-2.16666667 4.95833333 -0.08333333 5.47916667 2 6 C1.01 6.33 0.02 6.66 -1 7 C-1 7.66 -1 8.32 -1 9 C-6.41538462 10.23076923 -6.41538462 10.23076923 -9.375 9.0625 C-9.91125 8.711875 -10.4475 8.36125 -11 8 C-11 6.02 -11 4.04 -11 2 C-9.73392393 1.46770674 -8.46189588 0.94955456 -7.1875 0.4375 C-6.47980469 0.14746094 -5.77210937 -0.14257812 -5.04296875 -0.44140625 C-3 -1 -3 -1 0 0 Z " fill="#8C11F5" transform="translate(15,91)"/>
<path d="M0 0 C4.55990683 5.29537568 5.09705342 8.6216789 5.31640625 15.515625 C5.35830078 16.76601563 5.40019531 18.01640625 5.44335938 19.3046875 C5.48267578 20.60664062 5.52199219 21.90859375 5.5625 23.25 C5.60568359 24.56742188 5.64886719 25.88484375 5.69335938 27.2421875 C5.79941917 30.49468788 5.90148024 33.74726392 6 37 C5.34 36.67 4.68 36.34 4 36 C2.33267679 29.14544902 2.29239712 21.78288772 1.75 14.765625 C1.35456267 9.79794351 0.95268593 4.89952765 0 0 Z " fill="#6D20C6" transform="translate(175,24)"/>
<path d="M0 0 C5.12282759 -0.09945752 10.24508354 -0.17174409 15.36865234 -0.21972656 C17.10866089 -0.23974522 18.84860299 -0.26696886 20.58837891 -0.30175781 C23.10075346 -0.35070952 25.61223275 -0.37306587 28.125 -0.390625 C28.89303955 -0.41127014 29.6610791 -0.43191528 30.45239258 -0.45318604 C35.99810304 -0.45544971 40.42499863 0.76689645 45 4 C45.66 4.99 46.32 5.98 47 7 C46.34 7.66 45.68 8.32 45 9 C44.505 8.401875 44.01 7.80375 43.5 7.1875 C35.79868729 0.44885138 25.62655377 1.45469883 16 1.3125 C14.44658657 1.2792797 12.89319983 1.24478578 11.33984375 1.20898438 C7.56004407 1.12461752 3.7802991 1.05755671 0 1 C0 0.67 0 0.34 0 0 Z " fill="#6028A6" transform="translate(128,17)"/>
<path d="M0 0 C1.23556641 0.01740234 1.23556641 0.01740234 2.49609375 0.03515625 C3.32238281 0.04417969 4.14867187 0.05320313 5 0.0625 C5.63808594 0.07410156 6.27617187 0.08570313 6.93359375 0.09765625 C6.19140625 2.01953125 6.19140625 2.01953125 4.93359375 4.09765625 C2.98828125 4.92578125 2.98828125 4.92578125 0.80859375 5.34765625 C-0.47015625 5.59515625 -1.74890625 5.84265625 -3.06640625 6.09765625 C-3.06640625 5.43765625 -3.06640625 4.77765625 -3.06640625 4.09765625 C-8.34640625 4.09765625 -13.62640625 4.09765625 -19.06640625 4.09765625 C-18.73640625 3.43765625 -18.40640625 2.77765625 -18.06640625 2.09765625 C-15.54002975 1.81137293 -13.100738 1.63048433 -10.56640625 1.53515625 C-6.78309024 1.37202244 -3.38855755 0.16013977 0 0 Z " fill="#6D10EF" transform="translate(163.06640625,167.90234375)"/>
<path d="M0 0 C0 0.66 0 1.32 0 2 C-9.1618137 9.5173856 -20.44585975 8.12076362 -31.5625 7.625 C-33.06310995 7.56664205 -34.56376143 7.5093417 -36.06445312 7.453125 C-39.71019487 7.31427534 -43.35516637 7.16111521 -47 7 C-47 6.67 -47 6.34 -47 6 C-46.04222656 5.98541748 -45.08445313 5.97083496 -44.09765625 5.95581055 C-40.51151989 5.89741637 -36.92598474 5.82019016 -33.34033203 5.73754883 C-31.79453357 5.70449138 -30.24861996 5.67640097 -28.70263672 5.65356445 C-19.45587121 5.51328105 -12.03136388 5.01568194 -3.625 0.8125 C-2 0 -2 0 0 0 Z " fill="#4D00C4" transform="translate(175,168)"/>
<path d="M0 0 C3.85402129 -0.08770383 7.70778291 -0.14062735 11.5625 -0.1875 C12.64853516 -0.21263672 13.73457031 -0.23777344 14.85351562 -0.26367188 C22.72222336 -0.33542301 27.40359339 0.60239559 34 5 C33.67 5.66 33.34 6.32 33 7 C31.5459375 6.566875 31.5459375 6.566875 30.0625 6.125 C25.75080262 4.88803764 21.38554873 3.93478816 17 3 C17 2.67 17 2.34 17 2 C11.39 1.67 5.78 1.34 0 1 C0 0.67 0 0.34 0 0 Z " fill="#6922BE" transform="translate(86,100)"/>
<path d="M0 0 C0.99 0.33 1.98 0.66 3 1 C2.236875 1.7425 1.47375 2.485 0.6875 3.25 C-8.14051977 12.28332256 -9.63004668 23.8146257 -11 36 C-11.33 36 -11.66 36 -12 36 C-12.75124897 24.60605733 -10.97920917 12.37831232 -4 3 C-1.75 2.0625 -1.75 2.0625 0 2 C0 1.34 0 0.68 0 0 Z " fill="#692CBD" transform="translate(192,102)"/>
<path d="M0 0 C2.475 0.495 2.475 0.495 5 1 C4.01 1.495 4.01 1.495 3 2 C3.66 3.32 4.32 4.64 5 6 C5.66 5.67 6.32 5.34 7 5 C7.33 6.32 7.66 7.64 8 9 C7.01 8.67 6.02 8.34 5 8 C5 11.63 5 15.26 5 19 C4.01 19 3.02 19 2 19 C2.020625 17.865625 2.04125 16.73125 2.0625 15.5625 C2.17899829 7.54912308 2.17899829 7.54912308 0 0 Z " fill="#6617D0" transform="translate(128,63)"/>
<path d="M0 0 C0.9075 0.165 1.815 0.33 2.75 0.5 C5 1 5 1 7 2 C7.88671875 3.70703125 7.88671875 3.70703125 8.6875 5.8125 C8.95949219 6.49957031 9.23148438 7.18664063 9.51171875 7.89453125 C10.06812731 10.29376496 9.77364938 11.6894364 9 14 C8.731875 13.46890625 8.46375 12.9378125 8.1875 12.390625 C5.08452797 6.79710964 2.07811622 4.0497351 -4 2 C-7.31583451 1.2216223 -7.31583451 1.2216223 -10 1 C-6.38659291 -1.36261233 -4.11878697 -0.92462565 0 0 Z " fill="#671FC8" transform="translate(120,55)"/>
<path d="M0 0 C0.66 0 1.32 0 2 0 C1.86076952 4.06275446 1.71246082 8.12512857 1.5625 12.1875 C1.52318359 13.33798828 1.48386719 14.48847656 1.44335938 15.67382812 C1.40146484 16.78564453 1.35957031 17.89746094 1.31640625 19.04296875 C1.27974854 20.06414795 1.24309082 21.08532715 1.20532227 22.13745117 C1.01159937 24.83828463 0.59548047 27.36166128 0 30 C-0.99 30 -1.98 30 -3 30 C-2.86722656 29.25878906 -2.73445313 28.51757812 -2.59765625 27.75390625 C-1.0477904 18.51127558 -0.42562119 9.35246552 0 0 Z " fill="#7631BC" transform="translate(23,43)"/>
<path d="M0 0 C0.66 0.33 1.32 0.66 2 1 C1.01 1.33 0.02 1.66 -1 2 C-1 4.64 -1 7.28 -1 10 C2.465 11.98 2.465 11.98 6 14 C6 14.66 6 15.32 6 16 C4.51965236 15.52449439 3.04074979 15.04448784 1.5625 14.5625 C0.73878906 14.29566406 -0.08492188 14.02882813 -0.93359375 13.75390625 C-3 13 -3 13 -4 12 C-4.07205511 10.31391034 -4.08386068 8.62499341 -4.0625 6.9375 C-4.05347656 6.01839844 -4.04445313 5.09929687 -4.03515625 4.15234375 C-4.02355469 3.44207031 -4.01195312 2.73179688 -4 2 C-2.125 0.9375 -2.125 0.9375 0 0 Z " fill="#6D21C2" transform="translate(6,89)"/>
<path d="M0 0 C9 0 18 0 27 0 C29 3 29 3 29 7 C28.34 6.67 27.68 6.34 27 6 C26.34 5.690625 25.68 5.38125 25 5.0625 C23 4 23 4 21 2 C18.86747907 1.72285104 18.86747907 1.72285104 16.4296875 1.8046875 C15.53378906 1.81113281 14.63789062 1.81757812 13.71484375 1.82421875 C12.30912109 1.84935547 12.30912109 1.84935547 10.875 1.875 C9.93011719 1.88402344 8.98523438 1.89304687 8.01171875 1.90234375 C5.67422708 1.92595478 3.33723877 1.95888484 1 2 C0.67 1.34 0.34 0.68 0 0 Z " fill="#5A05C7" transform="translate(86,66)"/>
<path d="M0 0 C0.33 0 0.66 0 1 0 C1.0501123 0.58491211 1.10022461 1.16982422 1.15185547 1.77246094 C1.38451235 4.43245181 1.62962436 7.09115349 1.875 9.75 C1.95363281 10.67039062 2.03226563 11.59078125 2.11328125 12.5390625 C2.19707031 13.42851563 2.28085938 14.31796875 2.3671875 15.234375 C2.47716064 16.45979004 2.47716064 16.45979004 2.58935547 17.70996094 C3.02109144 20.11762049 3.80326384 21.87909392 5 24 C4.34 24 3.68 24 3 24 C3.33 25.98 3.66 27.96 4 30 C3.34 28.68 2.68 27.36 2 26 C1.34 26 0.68 26 0 26 C0.03255208 23.98177083 0.06510417 21.96354167 0.09765625 19.9453125 C0.12649242 17.91814596 0.12649242 17.91814596 -1 16 C-0.91075148 13.2764805 -0.76646668 10.58986689 -0.5625 7.875 C-0.51029297 7.12089844 -0.45808594 6.36679687 -0.40429688 5.58984375 C-0.27454996 3.7262063 -0.13792512 1.86305004 0 0 Z " fill="#6B0CE1" transform="translate(177,40)"/>
<path d="M0 0 C2.3125 -0.25 2.3125 -0.25 5 0 C7.26523786 2.26523786 7.95684847 3.58804669 8.29296875 6.796875 C8.25816406 7.77140625 8.22335938 8.7459375 8.1875 9.75 C8.16042969 10.73484375 8.13335937 11.7196875 8.10546875 12.734375 C8.07066406 13.48203125 8.03585938 14.2296875 8 15 C7.67 15 7.34 15 7 15 C7 12.36 7 9.72 7 7 C4.69 7 2.38 7 0 7 C-0.33 5.68 -0.66 4.36 -1 3 C0.98 3.99 0.98 3.99 3 5 C3 4.34 3 3.68 3 3 C2.01 2.67 1.02 2.34 0 2 C0 1.34 0 0.68 0 0 Z " fill="#660BD8" transform="translate(113,105)"/>
<path d="M0 0 C0.33 0 0.66 0 1 0 C1.54653134 5.35600714 0.81709229 8.46069611 -2.421875 12.62109375 C-5.01492153 14.88680024 -7.66919283 14.93469006 -11 15 C-10.278125 14.525625 -9.55625 14.05125 -8.8125 13.5625 C-4.62182149 9.74432625 -2.50684944 5.01369887 0 0 Z " fill="#782AC9" transform="translate(19,74)"/>
<path d="M0 0 C1.83203125 0.203125 1.83203125 0.203125 4 1 C5.44921875 3.109375 5.44921875 3.109375 6.6875 5.75 C7.10386719 6.61109375 7.52023438 7.4721875 7.94921875 8.359375 C8.96568708 10.91377125 9.55692304 13.29284848 10 16 C9.01 16 8.02 16 7 16 C6.66226562 15.18015625 6.32453125 14.3603125 5.9765625 13.515625 C5.53054687 12.43796875 5.08453125 11.3603125 4.625 10.25 C4.18414063 9.18265625 3.74328125 8.1153125 3.2890625 7.015625 C2.26692415 4.62444074 1.19786405 2.30616817 0 0 Z " fill="#6C19CD" transform="translate(13,106)"/>
<path d="M0 0 C0.91007812 0.00902344 1.82015625 0.01804687 2.7578125 0.02734375 C3.45648438 0.03894531 4.15515625 0.05054687 4.875 0.0625 C4.875 1.3825 4.875 2.7025 4.875 4.0625 C4.070625 3.876875 3.26625 3.69125 2.4375 3.5 C1.1690625 3.2834375 1.1690625 3.2834375 -0.125 3.0625 C-0.455 3.3925 -0.785 3.7225 -1.125 4.0625 C-2.78514616 4.42692233 -4.45206064 4.76222883 -6.125 5.0625 C-6.455 3.7425 -6.785 2.4225 -7.125 1.0625 C-4.60024538 -0.19987731 -2.81299534 -0.03606404 0 0 Z " fill="#8B11FB" transform="translate(44.125,18.9375)"/>
<path d="M0 0 C0.04125 0.61875 0.0825 1.2375 0.125 1.875 C0.41375 2.57625 0.7025 3.2775 1 4 C3.84979639 5.11680706 3.84979639 5.11680706 7 6 C9.375 7.625 9.375 7.625 11 9 C10.67 9.99 10.34 10.98 10 12 C9.48050781 11.59007813 8.96101562 11.18015625 8.42578125 10.7578125 C4.7576223 7.92363424 1.48550294 5.40171967 -3 4 C-2.67 3.01 -2.34 2.02 -2 1 C-1.34 0.67 -0.68 0.34 0 0 Z " fill="#541EA1" transform="translate(121,91)"/>
<path d="M0 0 C3.70668305 3.46754221 4.91463111 5.37799102 5.1875 10.5625 C5 14 5 14 3 16 C3 14.02 3 12.04 3 10 C2.34 9.67 1.68 9.34 1 9 C0.5859375 6.93359375 0.5859375 6.93359375 0.375 4.4375 C0.30023438 3.61121094 0.22546875 2.78492187 0.1484375 1.93359375 C0.09945312 1.29550781 0.05046875 0.65742187 0 0 Z " fill="#6628B9" transform="translate(114,67)"/>
<path d="M0 0 C2 0 2 0 4.125 1.9375 C6.64129481 6.04744819 6.36823948 9.30494667 6 14 C5.34 14 4.68 14 4 14 C3.79503906 13.24074219 3.59007812 12.48148438 3.37890625 11.69921875 C3.10949219 10.70535156 2.84007812 9.71148437 2.5625 8.6875 C2.29566406 7.70136719 2.02882812 6.71523437 1.75390625 5.69921875 C1.21920575 3.78482474 0.62855462 1.88566385 0 0 Z " fill="#6521CB" transform="translate(131,103)"/>
<path d="M0 0 C3.76127491 0.10165608 4.98989184 0.99079034 7.8125 3.5625 C8.534375 4.366875 9.25625 5.17125 10 6 C9.34 6.66 8.68 7.32 8 8 C7.46375 7.38125 6.9275 6.7625 6.375 6.125 C3.68896977 3.7217098 1.44585438 2.93977847 -2 2 C-1.34 1.34 -0.68 0.68 0 0 Z " fill="#6218C8" transform="translate(165,18)"/>
<path d="M0 0 C0.99 0.33 1.98 0.66 3 1 C2.236875 1.7425 1.47375 2.485 0.6875 3.25 C-2.31757062 6.32495598 -4.62171781 9.43257671 -7 13 C-8 10 -8 10 -6.3125 6.375 C-4.36524033 3.15218347 -4.36524033 3.15218347 -1.75 2.0625 C-1.1725 2.041875 -0.595 2.02125 0 2 C0 1.34 0 0.68 0 0 Z " fill="#5715B9" transform="translate(192,102)"/>
<path d="M0 0 C-0.52268466 2.76276177 -1.10869587 5.3260876 -2 8 C-1.67 8.99 -1.34 9.98 -1 11 C-3.97 10.505 -3.97 10.505 -7 10 C-5.62845496 7.04590299 -4.01136276 4.55991624 -2 2 C-2.66 1.67 -3.32 1.34 -4 1 C-2 0 -2 0 0 0 Z " fill="#610DDC" transform="translate(136,124)"/>
<path d="M0 0 C2.29633824 3.44450737 2.54016485 5.93812283 3 10 C1.35 10 -0.3 10 -2 10 C-2 7.69 -2 5.38 -2 3 C-1.01 4.485 -1.01 4.485 0 6 C0 4.02 0 2.04 0 0 Z " fill="#650CE0" transform="translate(181,70)"/>
<path d="M0 0 C0.99 0.33 1.98 0.66 3 1 C5.0745356 1.1490712 5.0745356 1.1490712 7 0 C5.79618552 2.49361571 4.54571278 4.68143083 3 7 C2.01 7 1.02 7 0 7 C0 4.69 0 2.38 0 0 Z " fill="#6B10F1" transform="translate(168,160)"/>
<path d="M0 0 C0.66 0.33 1.32 0.66 2 1 C0.02 1.99 0.02 1.99 -2 3 C-1.67 3.99 -1.34 4.98 -1 6 C-4.63 6 -8.26 6 -12 6 C-8.78447861 3.85631908 -5.5589943 2.48830671 -2 1 C-1.34 0.67 -0.68 0.34 0 0 Z " fill="#620FD2" transform="translate(127,134)"/>
<path d="M0 0 C0.99 0 1.98 0 3 0 C2.125 6.75 2.125 6.75 1 9 C0.34 9 -0.32 9 -1 9 C-1.09765625 2.84765625 -1.09765625 2.84765625 -1 1 C-0.67 0.67 -0.34 0.34 0 0 Z " fill="#6D11EA" transform="translate(185,102)"/>
<path d="M0 0 C1.134375 0.020625 2.26875 0.04125 3.4375 0.0625 C3.1075 0.7225 2.7775 1.3825 2.4375 2.0625 C2.7675 2.3925 3.0975 2.7225 3.4375 3.0625 C0.79011084 4.5231285 -0.45698334 5.0625 -3.5625 5.0625 C-4.125 3.125 -4.125 3.125 -4.5625 1.0625 C-3.5625 0.0625 -3.5625 0.0625 0 0 Z " fill="#8815F6" transform="translate(84.5625,18.9375)"/>
<path d="M0 0 C1.32 0.33 2.64 0.66 4 1 C5.37432457 4.81756824 4.67975039 8.07255329 4 12 C3.01 11.67 2.02 11.34 1 11 C1.33 10.34 1.66 9.68 2 9 C2.25 5.5 2.25 5.5 2 2 C1.34 1.34 0.68 0.68 0 0 Z " fill="#5821B1" transform="translate(197,90)"/>
<path d="M0 0 C0.66 0.33 1.32 0.66 2 1 C1.67 1.66 1.34 2.32 1 3 C0.34 3 -0.32 3 -1 3 C-1 3.66 -1 4.32 -1 5 C-2.65 5.66 -4.3 6.32 -6 7 C-6 7.66 -6 8.32 -6 9 C-6.66 9 -7.32 9 -8 9 C-6.4169423 4.7257442 -3.49431596 2.73468206 0 0 Z " fill="#721FBF" transform="translate(35,18)"/>
<path d="M0 0 C2 3 2 3 1.625 5 C1.41875 5.66 1.2125 6.32 1 7 C1 7.99 1 8.98 1 10 C0.34 10 -0.32 10 -1 10 C-2 4.25 -2 4.25 -2 2 C-1.34 2 -0.68 2 0 2 C0 1.34 0 0.68 0 0 Z " fill="#8913F5" transform="translate(22,107)"/>
<path d="M0 0 C0 0.66 0 1.32 0 2 C-2.8125 4.1875 -2.8125 4.1875 -6 6 C-6.99 5.67 -7.98 5.34 -9 5 C-8.34 5 -7.68 5 -7 5 C-6.731875 4.360625 -6.46375 3.72125 -6.1875 3.0625 C-4.60976325 0.32222039 -3.09853405 0 0 0 Z " fill="#5B1CB9" transform="translate(175,168)"/>
<path d="M0 0 C2 3 2 3 2 7 C1.34 6.67 0.68 6.34 0 6 C-0.66 5.71125 -1.32 5.4225 -2 5.125 C-4 4 -4 4 -6 1 C-3.03 1.495 -3.03 1.495 0 2 C0 1.34 0 0.68 0 0 Z " fill="#650CDD" transform="translate(113,66)"/>
<path d="M0 0 C2.31 0 4.62 0 7 0 C7.33 0.99 7.66 1.98 8 3 C2.25 3.125 2.25 3.125 0 2 C0 1.34 0 0.68 0 0 Z " fill="#7A11E0" transform="translate(98,67)"/>
<path d="M0 0 C1.32 0 2.64 0 4 0 C4 2.64 4 5.28 4 8 C3.01 8.495 3.01 8.495 2 9 C2 7.02 2 5.04 2 3 C1.34 2.67 0.68 2.34 0 2 C0 1.34 0 0.68 0 0 Z " fill="#7311E2" transform="translate(116,112)"/>
<path d="M0 0 C-0.66 0 -1.32 0 -2 0 C-2 0.66 -2 1.32 -2 2 C-4.8125 2.625 -4.8125 2.625 -8 3 C-8.99 2.34 -9.98 1.68 -11 1 C-3.375 -1.125 -3.375 -1.125 0 0 Z " fill="#5308B8" transform="translate(168,173)"/>
<path d="M0 0 C0.66 0 1.32 0 2 0 C2.33 2.31 2.66 4.62 3 7 C1.68 7 0.36 7 -1 7 C-0.67 4.69 -0.34 2.38 0 0 Z " fill="#7027CB" transform="translate(134,118)"/>
<path d="M0 0 C1.65 0 3.3 0 5 0 C4.67 1.65 4.34 3.3 4 5 C1.525 4.01 1.525 4.01 -1 3 C-0.67 2.01 -0.34 1.02 0 0 Z " fill="#7110F6" transform="translate(194,92)"/>
<path d="M0 0 C0.99 0 1.98 0 3 0 C2.67 2.31 2.34 4.62 2 7 C1.01 7 0.02 7 -1 7 C-0.67 4.69 -0.34 2.38 0 0 Z " fill="#7325D6" transform="translate(21,66)"/>
<path d="M0 0 C0.33 0.99 0.66 1.98 1 3 C-2.63 2.34 -6.26 1.68 -10 1 C-5.64467851 -1.17766075 -4.53374042 -1.03039555 0 0 Z " fill="#6A29B8" transform="translate(120,55)"/>
<path d="M0 0 C0.66 0 1.32 0 2 0 C2.33 2.64 2.66 5.28 3 8 C2.01 8 1.02 8 0 8 C0 5.36 0 2.72 0 0 Z " fill="#6114DB" transform="translate(178,131)"/>
<path d="M0 0 C2.91517292 1.07401108 4.77810176 1.77810176 7 4 C6.67 4.99 6.34 5.98 6 7 C3.95880212 5.38405168 1.95927063 3.7143618 0 2 C0 1.34 0 0.68 0 0 Z " fill="#5B16B5" transform="translate(125,96)"/>
<path d="M0 0 C2.64 0 5.28 0 8 0 C6.60804085 2.7839183 4.84424221 2.97898997 2 4 C2 3.34 2 2.68 2 2 C1.34 2 0.68 2 0 2 C0 1.34 0 0.68 0 0 Z " fill="#7715E5" transform="translate(86,67)"/>
<path d="M0 0 C1.65 0 3.3 0 5 0 C4.01 1.485 4.01 1.485 3 3 C3.33 3.66 3.66 4.32 4 5 C3.01 5.33 2.02 5.66 1 6 C0.67 4.02 0.34 2.04 0 0 Z " fill="#9015F8" transform="translate(29,28)"/>
</svg>
